# xmcd CD database file
#
# Track frame offsets:
#	150
#	19656
#	46692
#	66198
#
# Disc length: 1241 seconds
#
# Revision: 2
# Processed by: cddbd v1.5.1PL0 Copyright (c) Steve Scherf et al.
# Submitted via: CDex 1.51
#
DISCID=2804d704
DTITLE=PROMENADE - あなたのための世界/藍銅鉱 -azurite-
DYEAR=2005
DGENRE=Vocal
TTITLE0=あなたのための世界
TTITLE1=藍銅鉱 -azurite-
TTITLE2=あなたのための世界 (off vocal)
TTITLE3=藍銅鉱 -azurite- (off vocal)
EXTD=YEAR: 2005
EXTT0=
EXTT1=
EXTT2=
EXTT3=
PLAYORDER=
